<?xml version="1.0" encoding="UTF-8" standalone="no"?>
<!DOCTYPE svg PUBLIC "-//W3C//DTD SVG 1.1//EN"
 "http://www.w3.org/Graphics/SVG/1.1/DTD/svg11.dtd">
<!-- Generated by graphviz version 2.28.0 (20130131.1336)
 -->
<!-- Title: controllers_diagram Pages: 1 -->
<svg width="466pt" height="601pt"
 viewBox="0.00 0.00 466.38 600.66" xmlns="http://www.w3.org/2000/svg" xmlns:xlink="http://www.w3.org/1999/xlink">
<g id="graph1" class="graph" transform="scale(1 1) rotate(0) translate(4 596.664)">
<title>controllers_diagram</title>
<polygon fill="white" stroke="white" points="-4,5 -4,-596.664 463.38,-596.664 463.38,5 -4,5"/>
<!-- _diagram_info -->
<g id="node1" class="node"><title>_diagram_info</title>
<text text-anchor="start" x="259.957" y="-285" font-family="Times,serif" font-size="13.00">Controllers diagram</text>
<text text-anchor="start" x="259.957" y="-269.4" font-family="Times,serif" font-size="13.00">Date: Dec 13 2013 &#45; 22:53</text>
<text text-anchor="start" x="259.957" y="-253.8" font-family="Times,serif" font-size="13.00">Migration version: 20131213111220</text>
<text text-anchor="start" x="259.957" y="-238.2" font-family="Times,serif" font-size="13.00">Generated by RailRoady 1.1.1</text>
<text text-anchor="start" x="259.957" y="-222.6" font-family="Times,serif" font-size="13.00">http://railroady.prestonlee.com</text>
</g>
<!-- ApplicationController -->
<g id="node2" class="node"><title>ApplicationController</title>
<polyline fill="none" stroke="black" points="79.2603,-292.7 194.902,-292.7 "/>
<path fill="none" stroke="black" d="M194.902,-292.7C200.902,-292.7 206.902,-298.7 206.902,-304.7"/>
<polyline fill="none" stroke="black" points="206.902,-304.7 206.902,-378.3 "/>
<path fill="none" stroke="black" d="M206.902,-378.3C206.902,-384.3 200.902,-390.3 194.902,-390.3"/>
<polyline fill="none" stroke="black" points="194.902,-390.3 79.2603,-390.3 "/>
<path fill="none" stroke="black" d="M79.2603,-390.3C73.2603,-390.3 67.2603,-384.3 67.2603,-378.3"/>
<polyline fill="none" stroke="black" points="67.2603,-378.3 67.2603,-304.7 "/>
<path fill="none" stroke="black" d="M67.2603,-304.7C67.2603,-298.7 73.2603,-292.7 79.2603,-292.7"/>
<text text-anchor="middle" x="137.081" y="-372.3" font-family="Times,serif" font-size="14.00">ApplicationController</text>
<polyline fill="none" stroke="black" points="67.2603,-365.5 206.902,-365.5 "/>
<polyline fill="none" stroke="black" points="67.2603,-341.5 206.902,-341.5 "/>
<polyline fill="none" stroke="black" points="67.2603,-317.5 206.902,-317.5 "/>
<text text-anchor="start" x="75.2603" y="-299.5" font-family="Times,serif" font-size="14.00">_layout</text>
</g>
<!-- GcmController -->
<g id="node3" class="node"><title>GcmController</title>
<polyline fill="none" stroke="black" points="227.029,-426.564 303.788,-426.564 "/>
<path fill="none" stroke="black" d="M303.788,-426.564C309.788,-426.564 315.788,-432.564 315.788,-438.564"/>
<polyline fill="none" stroke="black" points="315.788,-438.564 315.788,-580.164 "/>
<path fill="none" stroke="black" d="M315.788,-580.164C315.788,-586.164 309.788,-592.164 303.788,-592.164"/>
<polyline fill="none" stroke="black" points="303.788,-592.164 227.029,-592.164 "/>
<path fill="none" stroke="black" d="M227.029,-592.164C221.029,-592.164 215.029,-586.164 215.029,-580.164"/>
<polyline fill="none" stroke="black" points="215.029,-580.164 215.029,-438.564 "/>
<path fill="none" stroke="black" d="M215.029,-438.564C215.029,-432.564 221.029,-426.564 227.029,-426.564"/>
<text text-anchor="middle" x="265.408" y="-574.164" font-family="Times,serif" font-size="14.00">GcmController</text>
<polyline fill="none" stroke="black" points="215.029,-567.364 315.788,-567.364 "/>
<text text-anchor="start" x="223.029" y="-549.364" font-family="Times,serif" font-size="14.00">clear</text>
<text text-anchor="start" x="223.029" y="-532.564" font-family="Times,serif" font-size="14.00">delete</text>
<text text-anchor="start" x="223.029" y="-515.764" font-family="Times,serif" font-size="14.00">list</text>
<text text-anchor="start" x="223.029" y="-498.964" font-family="Times,serif" font-size="14.00">push</text>
<text text-anchor="start" x="223.029" y="-482.164" font-family="Times,serif" font-size="14.00">reg</text>
<polyline fill="none" stroke="black" points="215.029,-475.364 315.788,-475.364 "/>
<polyline fill="none" stroke="black" points="215.029,-451.364 315.788,-451.364 "/>
<text text-anchor="start" x="223.029" y="-433.364" font-family="Times,serif" font-size="14.00">_layout</text>
</g>
<!-- ApplicationController&#45;&gt;GcmController -->
<g id="edge2" class="edge"><title>ApplicationController&#45;&gt;GcmController</title>
<path fill="none" stroke="black" d="M174.544,-390.504C187.194,-407.052 201.53,-425.805 215.014,-443.444"/>
</g>
<!-- MainController -->
<g id="node4" class="node"><title>MainController</title>
<polyline fill="none" stroke="black" points="11.9568,-0.5 122.13,-0.5 "/>
<path fill="none" stroke="black" d="M122.13,-0.5C128.13,-0.5 134.13,-6.5 134.13,-12.5"/>
<polyline fill="none" stroke="black" points="134.13,-12.5 134.13,-271.7 "/>
<path fill="none" stroke="black" d="M134.13,-271.7C134.13,-277.7 128.13,-283.7 122.13,-283.7"/>
<polyline fill="none" stroke="black" points="122.13,-283.7 11.9568,-283.7 "/>
<path fill="none" stroke="black" d="M11.9568,-283.7C5.95679,-283.7 -0.0432129,-277.7 -0.0432129,-271.7"/>
<polyline fill="none" stroke="black" points="-0.0432129,-271.7 -0.0432129,-12.5 "/>
<path fill="none" stroke="black" d="M-0.0432129,-12.5C-0.0432129,-6.5 5.95679,-0.5 11.9568,-0.5"/>
<text text-anchor="middle" x="67.0432" y="-265.7" font-family="Times,serif" font-size="14.00">MainController</text>
<polyline fill="none" stroke="black" points="-0.0432129,-258.9 134.13,-258.9 "/>
<text text-anchor="start" x="7.95679" y="-240.9" font-family="Times,serif" font-size="14.00">article_read</text>
<text text-anchor="start" x="7.95679" y="-224.1" font-family="Times,serif" font-size="14.00">category_destroy</text>
<text text-anchor="start" x="7.95679" y="-207.3" font-family="Times,serif" font-size="14.00">category_list</text>
<text text-anchor="start" x="7.95679" y="-190.5" font-family="Times,serif" font-size="14.00">category_wait</text>
<text text-anchor="start" x="7.95679" y="-173.7" font-family="Times,serif" font-size="14.00">category_wait_query</text>
<text text-anchor="start" x="7.95679" y="-156.9" font-family="Times,serif" font-size="14.00">grab_all_macrolevel</text>
<text text-anchor="start" x="7.95679" y="-140.1" font-family="Times,serif" font-size="14.00">grab_by_keyword</text>
<text text-anchor="start" x="7.95679" y="-123.3" font-family="Times,serif" font-size="14.00">grab_by_macrolevel</text>
<text text-anchor="start" x="7.95679" y="-106.5" font-family="Times,serif" font-size="14.00">index</text>
<text text-anchor="start" x="7.95679" y="-89.7" font-family="Times,serif" font-size="14.00">keyword_control</text>
<text text-anchor="start" x="7.95679" y="-72.9" font-family="Times,serif" font-size="14.00">macrolevel_control</text>
<polyline fill="none" stroke="black" points="-0.0432129,-66.1 134.13,-66.1 "/>
<polyline fill="none" stroke="black" points="-0.0432129,-42.1 134.13,-42.1 "/>
<text text-anchor="start" x="7.95679" y="-24.1" font-family="Times,serif" font-size="14.00">_layout</text>
<text text-anchor="start" x="7.95679" y="-7.3" font-family="Times,serif" font-size="14.00">get_category</text>
</g>
<!-- ApplicationController&#45;&gt;MainController -->
<g id="edge4" class="edge"><title>ApplicationController&#45;&gt;MainController</title>
<path fill="none" stroke="black" d="M119.858,-292.466C118.886,-289.698 117.889,-286.86 116.872,-283.963"/>
</g>
</g>
</svg>
