<?xml version="1.0" encoding="UTF-8" standalone="no"?>
<!DOCTYPE svg PUBLIC "-//W3C//DTD SVG 1.1//EN"
 "http://www.w3.org/Graphics/SVG/1.1/DTD/svg11.dtd">
<!-- Generated by graphviz version 2.28.0 (20130131.1336)
 -->
<!-- Title: models_diagram Pages: 1 -->
<svg width="655pt" height="694pt"
 viewBox="0.00 0.00 655.00 694.00" xmlns="http://www.w3.org/2000/svg" xmlns:xlink="http://www.w3.org/1999/xlink">
<g id="graph1" class="graph" transform="scale(1 1) rotate(0) translate(4 690)">
<title>models_diagram</title>
<polygon fill="white" stroke="white" points="-4,5 -4,-690 652,-690 652,5 -4,5"/>
<!-- _diagram_info -->
<g id="node1" class="node"><title>_diagram_info</title>
<text text-anchor="start" x="7.78833" y="-669" font-family="Times,serif" font-size="13.00">Models diagram</text>
<text text-anchor="start" x="7.78833" y="-653.4" font-family="Times,serif" font-size="13.00">Date: Dec 13 2013 &#45; 22:52</text>
<text text-anchor="start" x="7.78833" y="-637.8" font-family="Times,serif" font-size="13.00">Migration version: 20131213111220</text>
<text text-anchor="start" x="7.78833" y="-622.2" font-family="Times,serif" font-size="13.00">Generated by RailRoady 1.1.1</text>
<text text-anchor="start" x="7.78833" y="-606.6" font-family="Times,serif" font-size="13.00">http://railroady.prestonlee.com</text>
</g>
<!-- Article -->
<g id="node2" class="node"><title>Article</title>
<polyline fill="none" stroke="black" points="372.322,-173.2 511.678,-173.2 "/>
<path fill="none" stroke="black" d="M511.678,-173.2C517.678,-173.2 523.678,-179.2 523.678,-185.2"/>
<polyline fill="none" stroke="black" points="523.678,-185.2 523.678,-378.8 "/>
<path fill="none" stroke="black" d="M523.678,-378.8C523.678,-384.8 517.678,-390.8 511.678,-390.8"/>
<polyline fill="none" stroke="black" points="511.678,-390.8 372.322,-390.8 "/>
<path fill="none" stroke="black" d="M372.322,-390.8C366.322,-390.8 360.322,-384.8 360.322,-378.8"/>
<polyline fill="none" stroke="black" points="360.322,-378.8 360.322,-185.2 "/>
<path fill="none" stroke="black" d="M360.322,-185.2C360.322,-179.2 366.322,-173.2 372.322,-173.2"/>
<text text-anchor="middle" x="442" y="-372.8" font-family="Times,serif" font-size="14.00">Article</text>
<polyline fill="none" stroke="black" points="360.322,-366 523.678,-366 "/>
<text text-anchor="start" x="368.322" y="-348" font-family="Times,serif" font-size="14.00">id :integer</text>
<text text-anchor="start" x="368.322" y="-331.2" font-family="Times,serif" font-size="14.00">title :string</text>
<text text-anchor="start" x="368.322" y="-314.4" font-family="Times,serif" font-size="14.00">authorize_at :datetime</text>
<text text-anchor="start" x="368.322" y="-297.6" font-family="Times,serif" font-size="14.00">content :text</text>
<text text-anchor="start" x="368.322" y="-280.8" font-family="Times,serif" font-size="14.00">created_at :datetime</text>
<text text-anchor="start" x="368.322" y="-264" font-family="Times,serif" font-size="14.00">updated_at :datetime</text>
<text text-anchor="start" x="368.322" y="-247.2" font-family="Times,serif" font-size="14.00">authorize_at_string :string</text>
<text text-anchor="start" x="368.322" y="-230.4" font-family="Times,serif" font-size="14.00">source :string</text>
<text text-anchor="start" x="368.322" y="-213.6" font-family="Times,serif" font-size="14.00">score :integer</text>
<text text-anchor="start" x="368.322" y="-196.8" font-family="Times,serif" font-size="14.00">label :integer</text>
<text text-anchor="start" x="368.322" y="-180" font-family="Times,serif" font-size="14.00">url :text</text>
</g>
<!-- ArticleEntry -->
<g id="node3" class="node"><title>ArticleEntry</title>
<polyline fill="none" stroke="black" points="246.712,-1.2 357.288,-1.2 "/>
<path fill="none" stroke="black" d="M357.288,-1.2C363.288,-1.2 369.288,-7.2 369.288,-13.2"/>
<polyline fill="none" stroke="black" points="369.288,-13.2 369.288,-122.8 "/>
<path fill="none" stroke="black" d="M369.288,-122.8C369.288,-128.8 363.288,-134.8 357.288,-134.8"/>
<polyline fill="none" stroke="black" points="357.288,-134.8 246.712,-134.8 "/>
<path fill="none" stroke="black" d="M246.712,-134.8C240.712,-134.8 234.712,-128.8 234.712,-122.8"/>
<polyline fill="none" stroke="black" points="234.712,-122.8 234.712,-13.2 "/>
<path fill="none" stroke="black" d="M234.712,-13.2C234.712,-7.2 240.712,-1.2 246.712,-1.2"/>
<text text-anchor="middle" x="302" y="-116.8" font-family="Times,serif" font-size="14.00">ArticleEntry</text>
<polyline fill="none" stroke="black" points="234.712,-110 369.288,-110 "/>
<text text-anchor="start" x="242.712" y="-92" font-family="Times,serif" font-size="14.00">id :integer</text>
<text text-anchor="start" x="242.712" y="-75.2" font-family="Times,serif" font-size="14.00">created_at :datetime</text>
<text text-anchor="start" x="242.712" y="-58.4" font-family="Times,serif" font-size="14.00">updated_at :datetime</text>
<text text-anchor="start" x="242.712" y="-41.6" font-family="Times,serif" font-size="14.00">article_id :integer</text>
<text text-anchor="start" x="242.712" y="-24.8" font-family="Times,serif" font-size="14.00">category_id :integer</text>
<text text-anchor="start" x="242.712" y="-8" font-family="Times,serif" font-size="14.00">category_type :string</text>
</g>
<!-- Article&#45;&gt;ArticleEntry -->
<g id="edge2" class="edge"><title>Article&#45;&gt;ArticleEntry</title>
<path fill="none" stroke="#5560c8" d="M366.351,-166.446C361.259,-158.735 356.207,-151.085 351.304,-143.66"/>
<ellipse fill="none" stroke="#5560c8" cx="368.565" cy="-169.799" rx="4.00002" ry="4.00002"/>
<polygon fill="#5560c8" stroke="#5560c8" points="351.134,-143.402 349.378,-132.578 348.378,-139.23 345.623,-135.058 345.623,-135.058 345.623,-135.058 348.378,-139.23 341.868,-137.537 351.134,-143.402 351.134,-143.402"/>
</g>
<!-- category -->
<g id="node10" class="node"><title>category</title>
<ellipse fill="none" stroke="black" cx="442" cy="-68" rx="46.1519" ry="18"/>
<text text-anchor="middle" x="442" y="-62.4" font-family="Times,serif" font-size="14.00">category</text>
</g>
<!-- Article&#45;&gt;category -->
<g id="edge4" class="edge"><title>Article&#45;&gt;category</title>
<path fill="none" stroke="#0f5f33" d="M442,-162.874C442,-137.903 442,-113.841 442,-96.3307"/>
<polygon fill="#0f5f33" stroke="#0f5f33" points="442,-163.137 437.5,-173.137 442,-168.137 442,-173.137 442,-173.137 442,-173.137 442,-168.137 446.5,-173.137 442,-163.137 442,-163.137"/>
<polygon fill="#0f5f33" stroke="#0f5f33" points="442,-96.325 446.5,-86.3249 442,-91.325 442,-86.325 442,-86.325 442,-86.325 442,-91.325 437.5,-86.325 442,-96.325 442,-96.325"/>
</g>
<!-- Keyword -->
<g id="node4" class="node"><title>Keyword</title>
<polyline fill="none" stroke="black" points="182.495,-437.6 291.505,-437.6 "/>
<path fill="none" stroke="black" d="M291.505,-437.6C297.505,-437.6 303.505,-443.6 303.505,-449.6"/>
<polyline fill="none" stroke="black" points="303.505,-449.6 303.505,-542.4 "/>
<path fill="none" stroke="black" d="M303.505,-542.4C303.505,-548.4 297.505,-554.4 291.505,-554.4"/>
<polyline fill="none" stroke="black" points="291.505,-554.4 182.495,-554.4 "/>
<path fill="none" stroke="black" d="M182.495,-554.4C176.495,-554.4 170.495,-548.4 170.495,-542.4"/>
<polyline fill="none" stroke="black" points="170.495,-542.4 170.495,-449.6 "/>
<path fill="none" stroke="black" d="M170.495,-449.6C170.495,-443.6 176.495,-437.6 182.495,-437.6"/>
<text text-anchor="middle" x="237" y="-536.4" font-family="Times,serif" font-size="14.00">Keyword</text>
<polyline fill="none" stroke="black" points="170.495,-529.6 303.505,-529.6 "/>
<text text-anchor="start" x="178.495" y="-511.6" font-family="Times,serif" font-size="14.00">id :integer</text>
<text text-anchor="start" x="178.495" y="-494.8" font-family="Times,serif" font-size="14.00">name :string</text>
<text text-anchor="start" x="178.495" y="-478" font-family="Times,serif" font-size="14.00">created_at :datetime</text>
<text text-anchor="start" x="178.495" y="-461.2" font-family="Times,serif" font-size="14.00">updated_at :datetime</text>
<text text-anchor="start" x="178.495" y="-444.4" font-family="Times,serif" font-size="14.00">lock :boolean</text>
</g>
<!-- Keyword&#45;&gt;Article -->
<g id="edge12" class="edge"><title>Keyword&#45;&gt;Article</title>
<path fill="none" stroke="#7031da" d="M299.916,-429.936C316.689,-412.59 335.132,-393.518 353.016,-375.022"/>
<polygon fill="#7031da" stroke="#7031da" points="299.698,-430.161 289.511,-434.222 296.222,-433.756 292.746,-437.35 292.746,-437.35 292.746,-437.35 296.222,-433.756 295.981,-440.478 299.698,-430.161 299.698,-430.161"/>
<polygon fill="#7031da" stroke="#7031da" points="353.152,-374.882 363.338,-370.821 356.628,-371.287 360.103,-367.693 360.103,-367.693 360.103,-367.693 356.628,-371.287 356.868,-364.565 353.152,-374.882 353.152,-374.882"/>
</g>
<!-- Keyword&#45;&gt;ArticleEntry -->
<g id="edge10" class="edge"><title>Keyword&#45;&gt;ArticleEntry</title>
<path fill="none" stroke="#cb5659" d="M264.014,-429.901C268.302,-417.494 272.23,-404.481 275,-392 293.432,-308.959 299.51,-211.366 301.398,-145.361"/>
<ellipse fill="none" stroke="#cb5659" cx="262.642" cy="-433.769" rx="4.00001" ry="4.00001"/>
<polygon fill="#cb5659" stroke="#cb5659" points="301.406,-145.042 306.165,-135.163 301.536,-140.044 301.666,-135.046 301.666,-135.046 301.666,-135.046 301.536,-140.044 297.168,-134.929 301.406,-145.042 301.406,-145.042"/>
</g>
<!-- TaskLog -->
<g id="node7" class="node"><title>TaskLog</title>
<polyline fill="none" stroke="black" points="143.712,-215.2 254.288,-215.2 "/>
<path fill="none" stroke="black" d="M254.288,-215.2C260.288,-215.2 266.288,-221.2 266.288,-227.2"/>
<polyline fill="none" stroke="black" points="266.288,-227.2 266.288,-336.8 "/>
<path fill="none" stroke="black" d="M266.288,-336.8C266.288,-342.8 260.288,-348.8 254.288,-348.8"/>
<polyline fill="none" stroke="black" points="254.288,-348.8 143.712,-348.8 "/>
<path fill="none" stroke="black" d="M143.712,-348.8C137.712,-348.8 131.712,-342.8 131.712,-336.8"/>
<polyline fill="none" stroke="black" points="131.712,-336.8 131.712,-227.2 "/>
<path fill="none" stroke="black" d="M131.712,-227.2C131.712,-221.2 137.712,-215.2 143.712,-215.2"/>
<text text-anchor="middle" x="199" y="-330.8" font-family="Times,serif" font-size="14.00">TaskLog</text>
<polyline fill="none" stroke="black" points="131.712,-324 266.288,-324 "/>
<text text-anchor="start" x="139.712" y="-306" font-family="Times,serif" font-size="14.00">id :integer</text>
<text text-anchor="start" x="139.712" y="-289.2" font-family="Times,serif" font-size="14.00">duration :string</text>
<text text-anchor="start" x="139.712" y="-272.4" font-family="Times,serif" font-size="14.00">category_type :string</text>
<text text-anchor="start" x="139.712" y="-255.6" font-family="Times,serif" font-size="14.00">category_id :integer</text>
<text text-anchor="start" x="139.712" y="-238.8" font-family="Times,serif" font-size="14.00">created_at :datetime</text>
<text text-anchor="start" x="139.712" y="-222" font-family="Times,serif" font-size="14.00">updated_at :datetime</text>
</g>
<!-- Keyword&#45;&gt;TaskLog -->
<g id="edge14" class="edge"><title>Keyword&#45;&gt;TaskLog</title>
<path fill="none" stroke="#96f49c" d="M225.204,-429.193C221.215,-406.937 216.728,-381.906 212.61,-358.93"/>
<ellipse fill="none" stroke="#96f49c" cx="225.961" cy="-433.413" rx="4.00001" ry="4.00001"/>
<polygon fill="#96f49c" stroke="#96f49c" points="212.573,-358.723 215.238,-348.086 211.691,-353.802 210.809,-348.88 210.809,-348.88 210.809,-348.88 211.691,-353.802 206.379,-349.674 212.573,-358.723 212.573,-358.723"/>
</g>
<!-- Macrolevel -->
<g id="node5" class="node"><title>Macrolevel</title>
<polyline fill="none" stroke="black" points="333.495,-429.2 442.505,-429.2 "/>
<path fill="none" stroke="black" d="M442.505,-429.2C448.505,-429.2 454.505,-435.2 454.505,-441.2"/>
<polyline fill="none" stroke="black" points="454.505,-441.2 454.505,-550.8 "/>
<path fill="none" stroke="black" d="M454.505,-550.8C454.505,-556.8 448.505,-562.8 442.505,-562.8"/>
<polyline fill="none" stroke="black" points="442.505,-562.8 333.495,-562.8 "/>
<path fill="none" stroke="black" d="M333.495,-562.8C327.495,-562.8 321.495,-556.8 321.495,-550.8"/>
<polyline fill="none" stroke="black" points="321.495,-550.8 321.495,-441.2 "/>
<path fill="none" stroke="black" d="M321.495,-441.2C321.495,-435.2 327.495,-429.2 333.495,-429.2"/>
<text text-anchor="middle" x="388" y="-544.8" font-family="Times,serif" font-size="14.00">Macrolevel</text>
<polyline fill="none" stroke="black" points="321.495,-538 454.505,-538 "/>
<text text-anchor="start" x="329.495" y="-520" font-family="Times,serif" font-size="14.00">id :integer</text>
<text text-anchor="start" x="329.495" y="-503.2" font-family="Times,serif" font-size="14.00">name :string</text>
<text text-anchor="start" x="329.495" y="-486.4" font-family="Times,serif" font-size="14.00">tag :string</text>
<text text-anchor="start" x="329.495" y="-469.6" font-family="Times,serif" font-size="14.00">created_at :datetime</text>
<text text-anchor="start" x="329.495" y="-452.8" font-family="Times,serif" font-size="14.00">updated_at :datetime</text>
<text text-anchor="start" x="329.495" y="-436" font-family="Times,serif" font-size="14.00">lock :boolean</text>
</g>
<!-- Macrolevel&#45;&gt;Article -->
<g id="edge20" class="edge"><title>Macrolevel&#45;&gt;Article</title>
<path fill="none" stroke="#3f7ea7" d="M407.298,-419.238C408.837,-413.196 410.412,-407.011 412.002,-400.77"/>
<polygon fill="#3f7ea7" stroke="#3f7ea7" points="407.258,-419.393 400.429,-427.973 406.024,-424.239 404.79,-429.084 404.79,-429.084 404.79,-429.084 406.024,-424.239 409.151,-430.195 407.258,-419.393 407.258,-419.393"/>
<polygon fill="#3f7ea7" stroke="#3f7ea7" points="412.04,-400.622 418.869,-392.042 413.274,-395.776 414.508,-390.931 414.508,-390.931 414.508,-390.931 413.274,-395.776 410.147,-389.82 412.04,-400.622 412.04,-400.622"/>
</g>
<!-- Macrolevel&#45;&gt;ArticleEntry -->
<g id="edge18" class="edge"><title>Macrolevel&#45;&gt;ArticleEntry</title>
<path fill="none" stroke="#c2e409" d="M359.589,-421.315C356.396,-411.546 353.426,-401.593 351,-392 329.979,-308.88 316.698,-211.302 309.346,-145.322"/>
<ellipse fill="none" stroke="#c2e409" cx="360.923" cy="-425.306" rx="4.00001" ry="4.00001"/>
<polygon fill="#c2e409" stroke="#c2e409" points="309.306,-144.951 312.69,-134.52 308.761,-139.981 308.217,-135.01 308.217,-135.01 308.217,-135.01 308.761,-139.981 303.743,-135.5 309.306,-144.951 309.306,-144.951"/>
</g>
<!-- Macrolevel&#45;&gt;TaskLog -->
<g id="edge22" class="edge"><title>Macrolevel&#45;&gt;TaskLog</title>
<path fill="none" stroke="#04b9c0" d="M323.846,-423.038C304.695,-401.557 283.684,-377.989 264.451,-356.416"/>
<ellipse fill="none" stroke="#04b9c0" cx="326.573" cy="-426.098" rx="4.00002" ry="4.00002"/>
<polygon fill="#04b9c0" stroke="#04b9c0" points="264.383,-356.34 261.087,-345.881 261.056,-352.607 257.728,-348.875 257.728,-348.875 257.728,-348.875 261.056,-352.607 254.369,-351.87 264.383,-356.34 264.383,-356.34"/>
</g>
<!-- MobileDevice -->
<g id="node6" class="node"><title>MobileDevice</title>
<polyline fill="none" stroke="black" points="522.536,-437.6 635.464,-437.6 "/>
<path fill="none" stroke="black" d="M635.464,-437.6C641.464,-437.6 647.464,-443.6 647.464,-449.6"/>
<polyline fill="none" stroke="black" points="647.464,-449.6 647.464,-542.4 "/>
<path fill="none" stroke="black" d="M647.464,-542.4C647.464,-548.4 641.464,-554.4 635.464,-554.4"/>
<polyline fill="none" stroke="black" points="635.464,-554.4 522.536,-554.4 "/>
<path fill="none" stroke="black" d="M522.536,-554.4C516.536,-554.4 510.536,-548.4 510.536,-542.4"/>
<polyline fill="none" stroke="black" points="510.536,-542.4 510.536,-449.6 "/>
<path fill="none" stroke="black" d="M510.536,-449.6C510.536,-443.6 516.536,-437.6 522.536,-437.6"/>
<text text-anchor="middle" x="579" y="-536.4" font-family="Times,serif" font-size="14.00">MobileDevice</text>
<polyline fill="none" stroke="black" points="510.536,-529.6 647.464,-529.6 "/>
<text text-anchor="start" x="518.536" y="-511.6" font-family="Times,serif" font-size="14.00">id :integer</text>
<text text-anchor="start" x="518.536" y="-494.8" font-family="Times,serif" font-size="14.00">email :string</text>
<text text-anchor="start" x="518.536" y="-478" font-family="Times,serif" font-size="14.00">registration_id :string</text>
<text text-anchor="start" x="518.536" y="-461.2" font-family="Times,serif" font-size="14.00">created_at :datetime</text>
<text text-anchor="start" x="518.536" y="-444.4" font-family="Times,serif" font-size="14.00">updated_at :datetime</text>
</g>
<!-- ActiveRecord::Base -->
<g id="node11" class="node"><title>ActiveRecord::Base</title>
<ellipse fill="none" stroke="black" cx="313" cy="-643" rx="88.2033" ry="18"/>
<text text-anchor="middle" x="313" y="-637.4" font-family="Times,serif" font-size="14.00">ActiveRecord::Base</text>
</g>
<!-- ActiveRecord::Base&#45;&gt;Article -->
<g id="edge6" class="edge"><title>ActiveRecord::Base&#45;&gt;Article</title>
<path fill="none" stroke="black" d="M368.071,-628.897C401.847,-617.71 442.436,-597.872 463,-564 494.037,-512.878 490.642,-446.502 478.623,-391.098"/>
</g>
<!-- ActiveRecord::Base&#45;&gt;ArticleEntry -->
<g id="edge8" class="edge"><title>ActiveRecord::Base&#45;&gt;ArticleEntry</title>
<path fill="none" stroke="black" d="M277.034,-626.422C225.611,-604.112 137.1,-565.555 136,-564 91.7326,-501.41 125.891,-468.608 123,-392 119.313,-294.292 74.0497,-256.643 123,-172 146.873,-130.72 194.255,-104.532 234.275,-88.8956"/>
</g>
<!-- ActiveRecord::Base&#45;&gt;Keyword -->
<g id="edge16" class="edge"><title>ActiveRecord::Base&#45;&gt;Keyword</title>
<path fill="none" stroke="black" d="M304.133,-625.083C295.049,-607.751 280.413,-579.828 267.122,-554.471"/>
</g>
<!-- ActiveRecord::Base&#45;&gt;Macrolevel -->
<g id="edge24" class="edge"><title>ActiveRecord::Base&#45;&gt;Macrolevel</title>
<path fill="none" stroke="black" d="M321.75,-625.083C329.71,-609.693 341.99,-585.954 353.824,-563.074"/>
</g>
<!-- ActiveRecord::Base&#45;&gt;MobileDevice -->
<g id="edge26" class="edge"><title>ActiveRecord::Base&#45;&gt;MobileDevice</title>
<path fill="none" stroke="black" d="M357.073,-627.332C395.447,-613.639 451.848,-591.251 497,-564 501.879,-561.055 506.779,-557.841 511.623,-554.466"/>
</g>
<!-- ActiveRecord::Base&#45;&gt;TaskLog -->
<g id="edge28" class="edge"><title>ActiveRecord::Base&#45;&gt;TaskLog</title>
<path fill="none" stroke="black" d="M277.906,-626.34C235.14,-606.904 167.706,-574.979 161,-564 121.161,-498.777 143.617,-409.318 167.464,-349.005"/>
</g>
</g>
</svg>
