<?xml version="1.0" encoding="UTF-8" standalone="no"?>
<!DOCTYPE svg PUBLIC "-//W3C//DTD SVG 1.1//EN"
 "http://www.w3.org/Graphics/SVG/1.1/DTD/svg11.dtd">
<!-- Generated by graphviz version 2.28.0 (20130131.1336)
 -->
<!-- Title: models_diagram Pages: 1 -->
<svg width="624pt" height="310pt"
 viewBox="0.00 0.00 624.00 310.00" xmlns="http://www.w3.org/2000/svg" xmlns:xlink="http://www.w3.org/1999/xlink">
<g id="graph1" class="graph" transform="scale(1 1) rotate(0) translate(4 306)">
<title>models_diagram</title>
<polygon fill="white" stroke="white" points="-4,5 -4,-306 621,-306 621,5 -4,5"/>
<!-- _diagram_info -->
<g id="node1" class="node"><title>_diagram_info</title>
<text text-anchor="start" x="7.78833" y="-285" font-family="Times,serif" font-size="13.00">Models diagram</text>
<text text-anchor="start" x="7.78833" y="-269.4" font-family="Times,serif" font-size="13.00">Date: Dec 13 2013 &#45; 22:53</text>
<text text-anchor="start" x="7.78833" y="-253.8" font-family="Times,serif" font-size="13.00">Migration version: 20131213111220</text>
<text text-anchor="start" x="7.78833" y="-238.2" font-family="Times,serif" font-size="13.00">Generated by RailRoady 1.1.1</text>
<text text-anchor="start" x="7.78833" y="-222.6" font-family="Times,serif" font-size="13.00">http://railroady.prestonlee.com</text>
</g>
<!-- Article -->
<g id="node2" class="node"><title>Article</title>
<ellipse fill="none" stroke="black" cx="390" cy="-90" rx="37.2739" ry="18"/>
<text text-anchor="middle" x="390" y="-84.4" font-family="Times,serif" font-size="14.00">Article</text>
</g>
<!-- ArticleEntry -->
<g id="node3" class="node"><title>ArticleEntry</title>
<ellipse fill="none" stroke="black" cx="286" cy="-18" rx="58.9547" ry="18"/>
<text text-anchor="middle" x="286" y="-12.4" font-family="Times,serif" font-size="14.00">ArticleEntry</text>
</g>
<!-- Article&#45;&gt;ArticleEntry -->
<g id="edge2" class="edge"><title>Article&#45;&gt;ArticleEntry</title>
<path fill="none" stroke="#0048b7" d="M362.144,-70.2506C348.436,-61.024 331.85,-49.8609 317.663,-40.3115"/>
<ellipse fill="none" stroke="#0048b7" cx="365.636" cy="-72.6009" rx="4.00002" ry="4.00002"/>
<polygon fill="#0048b7" stroke="#0048b7" points="317.482,-40.1897 311.699,-30.8728 313.334,-37.3978 309.186,-34.6059 309.186,-34.6059 309.186,-34.6059 313.334,-37.3978 306.673,-38.3391 317.482,-40.1897 317.482,-40.1897"/>
</g>
<!-- category -->
<g id="node10" class="node"><title>category</title>
<ellipse fill="none" stroke="black" cx="410" cy="-18" rx="46.1519" ry="18"/>
<text text-anchor="middle" x="410" y="-12.4" font-family="Times,serif" font-size="14.00">category</text>
</g>
<!-- Article&#45;&gt;category -->
<g id="edge4" class="edge"><title>Article&#45;&gt;category</title>
<path fill="none" stroke="#d0a0f2" d="M397.631,-62.2901C399.15,-56.9745 400.746,-51.3883 402.268,-46.0611"/>
<polygon fill="#d0a0f2" stroke="#d0a0f2" points="397.589,-62.4397 390.515,-70.8187 396.215,-67.2473 394.841,-72.055 394.841,-72.055 394.841,-72.055 396.215,-67.2473 399.168,-73.2912 397.589,-62.4397 397.589,-62.4397"/>
<polygon fill="#d0a0f2" stroke="#d0a0f2" points="402.317,-45.8905 409.391,-37.5116 403.691,-41.0829 405.064,-36.2753 405.064,-36.2753 405.064,-36.2753 403.691,-41.0829 400.737,-35.039 402.317,-45.8905 402.317,-45.8905"/>
</g>
<!-- Keyword -->
<g id="node4" class="node"><title>Keyword</title>
<ellipse fill="none" stroke="black" cx="253" cy="-162" rx="46.4581" ry="18"/>
<text text-anchor="middle" x="253" y="-156.4" font-family="Times,serif" font-size="14.00">Keyword</text>
</g>
<!-- Keyword&#45;&gt;Article -->
<g id="edge12" class="edge"><title>Keyword&#45;&gt;Article</title>
<path fill="none" stroke="#33ca07" d="M289.224,-142.491C310.039,-131.856 336.007,-118.588 356.369,-108.184"/>
<polygon fill="#33ca07" stroke="#33ca07" points="288.972,-142.62 278.019,-143.163 284.519,-144.895 280.067,-147.17 280.067,-147.17 280.067,-147.17 284.519,-144.895 282.114,-151.177 288.972,-142.62 288.972,-142.62"/>
<polygon fill="#33ca07" stroke="#33ca07" points="356.387,-108.175 367.339,-107.632 360.839,-105.9 365.292,-103.625 365.292,-103.625 365.292,-103.625 360.839,-105.9 363.244,-99.6173 356.387,-108.175 356.387,-108.175"/>
</g>
<!-- Keyword&#45;&gt;ArticleEntry -->
<g id="edge10" class="edge"><title>Keyword&#45;&gt;ArticleEntry</title>
<path fill="none" stroke="#93b782" d="M259.282,-135.821C261.448,-127.028 263.865,-117.086 266,-108 270.86,-87.3174 276.119,-63.8704 280.024,-46.2363"/>
<ellipse fill="none" stroke="#93b782" cx="258.261" cy="-139.952" rx="4.00001" ry="4.00001"/>
<polygon fill="#93b782" stroke="#93b782" points="280.109,-45.8495 286.659,-37.0545 281.187,-40.967 282.264,-36.0845 282.264,-36.0845 282.264,-36.0845 281.187,-40.967 277.87,-35.1146 280.109,-45.8495 280.109,-45.8495"/>
</g>
<!-- TaskLog -->
<g id="node7" class="node"><title>TaskLog</title>
<ellipse fill="none" stroke="black" cx="213" cy="-90" rx="44.5338" ry="18"/>
<text text-anchor="middle" x="213" y="-84.4" font-family="Times,serif" font-size="14.00">TaskLog</text>
</g>
<!-- Keyword&#45;&gt;TaskLog -->
<g id="edge14" class="edge"><title>Keyword&#45;&gt;TaskLog</title>
<path fill="none" stroke="#3b0f85" d="M239.284,-136.998C235.507,-130.387 231.397,-123.194 227.573,-116.502"/>
<ellipse fill="none" stroke="#3b0f85" cx="241.333" cy="-140.582" rx="4.00002" ry="4.00002"/>
<polygon fill="#3b0f85" stroke="#3b0f85" points="227.555,-116.471 226.501,-105.556 225.074,-112.13 222.594,-107.789 222.594,-107.789 222.594,-107.789 225.074,-112.13 218.687,-110.022 227.555,-116.471 227.555,-116.471"/>
</g>
<!-- Macrolevel -->
<g id="node5" class="node"><title>Macrolevel</title>
<ellipse fill="none" stroke="black" cx="373" cy="-162" rx="55.0101" ry="18"/>
<text text-anchor="middle" x="373" y="-156.4" font-family="Times,serif" font-size="14.00">Macrolevel</text>
</g>
<!-- Macrolevel&#45;&gt;Article -->
<g id="edge20" class="edge"><title>Macrolevel&#45;&gt;Article</title>
<path fill="none" stroke="#e54ec5" d="M379.57,-133.949C380.823,-128.788 382.135,-123.384 383.39,-118.219"/>
<polygon fill="#e54ec5" stroke="#e54ec5" points="379.562,-133.979 372.829,-142.635 378.382,-138.838 377.202,-143.697 377.202,-143.697 377.202,-143.697 378.382,-138.838 381.575,-144.759 379.562,-133.979 379.562,-133.979"/>
<polygon fill="#e54ec5" stroke="#e54ec5" points="383.486,-117.822 390.219,-109.166 384.666,-112.963 385.846,-108.104 385.846,-108.104 385.846,-108.104 384.666,-112.963 381.473,-107.042 383.486,-117.822 383.486,-117.822"/>
</g>
<!-- Macrolevel&#45;&gt;ArticleEntry -->
<g id="edge18" class="edge"><title>Macrolevel&#45;&gt;ArticleEntry</title>
<path fill="none" stroke="#1c4733" d="M358.474,-137.29C342.748,-111.623 317.758,-70.8345 301.618,-44.4918"/>
<ellipse fill="none" stroke="#1c4733" cx="360.589" cy="-140.742" rx="4.00002" ry="4.00002"/>
<polygon fill="#1c4733" stroke="#1c4733" points="301.533,-44.3519 300.145,-33.474 298.92,-40.0884 296.308,-35.825 296.308,-35.825 296.308,-35.825 298.92,-40.0884 292.471,-38.1759 301.533,-44.3519 301.533,-44.3519"/>
</g>
<!-- Macrolevel&#45;&gt;TaskLog -->
<g id="edge22" class="edge"><title>Macrolevel&#45;&gt;TaskLog</title>
<path fill="none" stroke="#29c15c" d="M334.028,-143.95C308.882,-132.948 276.321,-118.703 251.307,-107.759"/>
<ellipse fill="none" stroke="#29c15c" cx="337.725" cy="-145.567" rx="4.00002" ry="4.00002"/>
<polygon fill="#29c15c" stroke="#29c15c" points="251.283,-107.749 243.925,-99.6178 246.702,-105.745 242.121,-103.741 242.121,-103.741 242.121,-103.741 246.702,-105.745 240.318,-107.863 251.283,-107.749 251.283,-107.749"/>
</g>
<!-- MobileDevice -->
<g id="node6" class="node"><title>MobileDevice</title>
<ellipse fill="none" stroke="black" cx="550" cy="-162" rx="65.9157" ry="18"/>
<text text-anchor="middle" x="550" y="-156.4" font-family="Times,serif" font-size="14.00">MobileDevice</text>
</g>
<!-- ActiveRecord::Base -->
<g id="node11" class="node"><title>ActiveRecord::Base</title>
<ellipse fill="none" stroke="black" cx="313" cy="-259" rx="88.2033" ry="18"/>
<text text-anchor="middle" x="313" y="-253.4" font-family="Times,serif" font-size="14.00">ActiveRecord::Base</text>
</g>
<!-- ActiveRecord::Base&#45;&gt;Article -->
<g id="edge6" class="edge"><title>ActiveRecord::Base&#45;&gt;Article</title>
<path fill="none" stroke="black" d="M356.625,-243.275C385.072,-231.134 419.969,-210.833 437,-180 444.736,-165.995 442.677,-158.959 437,-144 431.327,-129.053 419.296,-115.619 408.826,-106.016"/>
</g>
<!-- ActiveRecord::Base&#45;&gt;ArticleEntry -->
<g id="edge8" class="edge"><title>ActiveRecord::Base&#45;&gt;ArticleEntry</title>
<path fill="none" stroke="black" d="M276.036,-242.617C248.517,-229.521 211.753,-208.32 188,-180 165.831,-153.568 165.564,-141.868 159,-108 155.955,-92.2923 150.129,-85.3153 159,-72 175.691,-46.9478 206.718,-33.7172 233.925,-26.7402"/>
</g>
<!-- ActiveRecord::Base&#45;&gt;Keyword -->
<g id="edge16" class="edge"><title>ActiveRecord::Base&#45;&gt;Keyword</title>
<path fill="none" stroke="black" d="M302.273,-241.016C291.352,-223.724 274.521,-197.076 263.634,-179.837"/>
</g>
<!-- ActiveRecord::Base&#45;&gt;Macrolevel -->
<g id="edge24" class="edge"><title>ActiveRecord::Base&#45;&gt;Macrolevel</title>
<path fill="none" stroke="black" d="M323.727,-241.016C334.648,-223.724 351.479,-197.076 362.366,-179.837"/>
</g>
<!-- ActiveRecord::Base&#45;&gt;MobileDevice -->
<g id="edge26" class="edge"><title>ActiveRecord::Base&#45;&gt;MobileDevice</title>
<path fill="none" stroke="black" d="M351.078,-242.737C396.09,-224.694 470.414,-194.902 514.342,-177.293"/>
</g>
<!-- ActiveRecord::Base&#45;&gt;TaskLog -->
<g id="edge28" class="edge"><title>ActiveRecord::Base&#45;&gt;TaskLog</title>
<path fill="none" stroke="black" d="M272.971,-242.939C246.167,-230.504 212.972,-209.987 197,-180 184.749,-156.999 195.113,-126.405 203.915,-107.737"/>
</g>
</g>
</svg>
